<?xml version="1.0" encoding="UTF-8"?>
<svg version="1.1" xmlns="http://www.w3.org/2000/svg" width="800" height="800">
<path d="M0 0 C0.81082031 -0.0515625 1.62164062 -0.103125 2.45703125 -0.15625 C6.79412097 0.88614066 9.36809621 3.08244335 12.1875 6.5 C14.37051133 10.43997917 15.96772152 14.54287358 17.5625 18.75 C18.03018799 19.94294678 18.49787598 21.13589355 18.97973633 22.36499023 C23.73222672 34.62175251 28.09358529 47.00879977 32.1875 59.5 C32.5287793 60.53382812 32.87005859 61.56765625 33.22167969 62.6328125 C57.21120145 135.90989715 65.94194248 213.9172495 56.1875 290.5 C56.70546143 289.97156494 57.22342285 289.44312988 57.75708008 288.89868164 C66.89273801 279.60283794 75.88852975 270.50496286 86.1875 262.5 C88.04460546 260.92011463 89.89859329 259.3365597 91.75 257.75 C117.80492158 236.01506542 147.67639885 218.27596455 178.14355469 203.49755859 C180.21037299 202.48883671 182.26521243 201.45813516 184.3203125 200.42578125 C194.43466653 195.41909091 204.79119615 191.18485178 215.3125 187.125 C216.31870895 186.73652893 216.31870895 186.73652893 217.34524536 186.34020996 C239.89246331 177.66286464 239.89246331 177.66286464 247.1875 178.5 C251.54694153 180.72084757 254.35580464 182.92076159 256.1875 187.5 C257.35809684 195.16786299 254.68900045 200.79222426 251.25 207.5 C250.74782959 208.5103833 250.24565918 209.5207666 249.72827148 210.56176758 C248.23402247 213.55144944 246.71434434 216.52686057 245.1875 219.5 C244.58808594 220.68601807 244.58808594 220.68601807 243.9765625 221.89599609 C231.72835172 246.11552991 216.85474933 269.09224679 200.1875 290.5 C199.34357033 291.60012261 198.49983009 292.70039056 197.65625 293.80078125 C177.22314853 320.2950211 153.93852878 345.75997734 126.6484375 365.30859375 C125.03919576 366.45450947 125.03919576 366.45450947 124.1875 368.5 C125.28964844 368.46648437 126.39179688 368.43296875 127.52734375 368.3984375 C132.70566602 368.40525258 137.66233608 369.21723531 142.75 370.125 C143.75160156 370.30321289 144.75320313 370.48142578 145.78515625 370.66503906 C171.25177195 375.36840465 195.80880608 383.37634327 219.1875 394.5 C220.28320312 395.00917969 221.37890625 395.51835937 222.5078125 396.04296875 C226.92348542 398.44391044 229.57893661 401.67430982 231.1875 406.5 C231.75323306 412.27047719 230.73249086 416.90288618 227.1875 421.5 C221.81197673 425.77240286 215.47825405 428.1717326 209.1875 430.8125 C208.03483643 431.2967041 206.88217285 431.7809082 205.69458008 432.27978516 C182.42846093 441.88959958 158.15344045 448.28779696 133.1875 451.5 C132.12208984 451.64683228 132.12208984 451.64683228 131.03515625 451.79663086 C122.57548127 452.81902143 114.06772515 452.60944615 105.5625 452.5625 C103.97005349 452.55747395 102.37760545 452.552913 100.78515625 452.54882812 C96.91923221 452.53791237 93.05338347 452.52070895 89.1875 452.5 C89.40365967 453.01159668 89.61981934 453.52319336 89.8425293 454.05029297 C104.74330585 489.58260953 104.74330585 489.58260953 103.1875 503.5 C101.40674259 507.62385927 99.10493295 510.29644397 95.1875 512.5 C80.05445452 516.0441705 60.68137853 504.07364072 48.1875 496.5 C38.63944621 490.47855027 30.27757126 483.33868486 22.1875 475.5 C21.31609375 474.65695312 20.4446875 473.81390625 19.546875 472.9453125 C16.14831975 469.60157265 13.01968737 466.33765632 10.1875 462.5 C10.18607498 463.05266037 10.18464996 463.60532074 10.18318176 464.17472839 C10.16347413 469.93412722 10.10917859 475.6924677 10.03491211 481.45141602 C10.01173478 483.59977624 9.99733703 485.74825004 9.99194336 487.89672852 C9.98265209 490.98786173 9.94165649 494.07720912 9.89453125 497.16796875 C9.8984639 498.12648239 9.90239655 499.08499603 9.90644836 500.07255554 C9.80488048 504.72903053 9.70932055 506.82932899 6.7722168 510.60424805 C4.27635142 512.43483222 3.22180248 513.18617545 0.1875 513.125 C-0.451875 513.13789062 -1.09125 513.15078125 -1.75 513.1640625 C-5.19575802 512.05463284 -6.59355152 510.35190841 -8.8125 507.5 C-9.562301 504.0606777 -9.53393199 500.67789543 -9.51953125 497.16796875 C-9.53465256 496.17622147 -9.54977386 495.18447418 -9.56535339 494.16267395 C-9.60824202 491.00405155 -9.61706975 487.84638461 -9.625 484.6875 C-9.64814332 482.54229229 -9.67350831 480.39710731 -9.70117188 478.25195312 C-9.76403526 473.00129303 -9.79896044 467.75100648 -9.8125 462.5 C-10.55290527 463.30824219 -11.29331055 464.11648438 -12.05615234 464.94921875 C-13.04524124 466.02865147 -14.03433664 467.10807824 -15.0234375 468.1875 C-15.75228149 468.98317383 -15.75228149 468.98317383 -16.49584961 469.79492188 C-34.4889944 489.42928239 -61.97381139 511.49750725 -89.9375 513.25 C-94.60254101 512.97265762 -97.25597223 511.31673145 -100.5703125 508.10546875 C-103.46721146 504.36136349 -103.13266663 499.9979032 -102.8125 495.5 C-102.30098293 492.32540151 -101.5552239 489.23683248 -100.75 486.125 C-100.53174561 485.26447021 -100.31349121 484.40394043 -100.08862305 483.51733398 C-97.89649873 475.22578109 -94.90603527 467.30812374 -91.6027832 459.40258789 C-90.65066343 457.11038234 -89.73092954 454.80588135 -88.8125 452.5 C-89.55483887 452.51571045 -90.29717773 452.5314209 -91.06201172 452.54760742 C-132.17035149 453.2955482 -196.43428905 449.29019955 -228.125 419.3125 C-230.46026425 415.42039292 -230.99861396 412.01326357 -230.8125 407.5 C-229.21481636 401.86111656 -226.56029745 398.74311464 -221.8125 395.5 C-218.50050074 393.7120256 -215.0884035 392.21943034 -211.625 390.75 C-210.62178711 390.32170898 -209.61857422 389.89341797 -208.58496094 389.45214844 C-182.93579547 378.73015032 -152.03712354 367.39315202 -123.8125 368.5 C-127.36407658 364.84995087 -131.0792355 361.50229074 -135 358.25 C-144.69319716 350.19868693 -153.84821374 341.65093525 -162.75366211 332.74414062 C-164.37140192 331.1285932 -165.99700636 329.52124966 -167.62304688 327.9140625 C-174.14043015 321.43128327 -180.08743562 314.70462529 -185.8125 307.5 C-186.73560759 306.40994262 -187.6652318 305.32531725 -188.60546875 304.25 C-214.12561777 274.94137862 -234.37520049 240.92282396 -251.5625 206.1875 C-251.99296631 205.34687012 -252.42343262 204.50624023 -252.86694336 203.64013672 C-255.50425707 198.18434064 -256.6392438 193.56745876 -255.8125 187.5 C-253.98080464 182.92076159 -251.17194153 180.72084757 -246.8125 178.5 C-239.19421744 177.65936192 -232.95474302 180.18658375 -225.875 182.8125 C-224.6487793 183.25964355 -223.42255859 183.70678711 -222.15917969 184.16748047 C-204.94806238 190.50846227 -188.14428408 197.96539695 -171.87353516 206.43261719 C-169.58336063 207.61866824 -167.28209732 208.7816538 -164.98046875 209.9453125 C-145.3062816 219.97401361 -126.59613035 231.41048168 -108.8125 244.5 C-107.79833008 245.23814941 -107.79833008 245.23814941 -106.76367188 245.99121094 C-88.85728617 259.03486725 -72.29492016 273.65752356 -56.8125 289.5 C-56.93620509 287.83323672 -57.06163685 286.16660171 -57.1875 284.5 C-57.27427002 283.3452417 -57.36104004 282.1904834 -57.45043945 281.00073242 C-57.70235406 277.76575666 -57.99335098 274.53613269 -58.30004883 271.3059082 C-59.62219737 257.07599402 -60.17823447 242.97554518 -60.125 228.6875 C-60.12176727 227.10284439 -60.12176727 227.10284439 -60.11846924 225.48617554 C-59.89220982 155.73876737 -44.95824874 85.76375398 -18.375 21.3125 C-17.8790332 20.10722656 -17.38306641 18.90195312 -16.87207031 17.66015625 C-11.15736525 4.11650029 -11.15736525 4.11650029 -6.86328125 1.15625 C-4.50770926 0.40246696 -2.47413745 0.09351071 0 0 Z M-0.8125 27.5 C-26.53881491 91.69997749 -42.01957182 159.65207274 -42.0625 229 C-42.06317474 229.98733124 -42.06384949 230.97466248 -42.06454468 231.99191284 C-42.02606589 267.66606337 -37.41248187 302.36746786 -26.8125 336.5 C-26.43085693 337.76553711 -26.43085693 337.76553711 -26.04150391 339.05664062 C-22.57678835 350.4123201 -17.83686725 361.07491091 -12.6875 371.75 C-12.38576874 372.37628296 -12.08403748 373.00256592 -11.77316284 373.64782715 C-8.46299981 380.48291633 -5.1705379 387.26536926 -0.8125 393.5 C-0.1525 393.5 0.5075 393.5 1.1875 393.5 C4.59779329 387.54088626 7.92926052 381.54365972 11.1875 375.5 C11.57679688 374.77876953 11.96609375 374.05753906 12.3671875 373.31445312 C35.26273718 330.08083537 42.42896624 279.03629743 42.375 230.75 C42.37439575 229.75144989 42.3737915 228.75289978 42.37316895 227.72409058 C42.34773665 212.22294916 41.9586696 196.91429173 40.1875 181.5 C40.06391113 180.37867676 39.94032227 179.25735352 39.81298828 178.10205078 C34.01484298 126.76210969 21.71439958 75.0137352 1.1875 27.5 C0.5275 27.5 -0.1325 27.5 -0.8125 27.5 Z M-232.8125 200.5 C-231.20537867 206.00885479 -228.72355438 210.88234716 -226.0625 215.9375 C-225.58296875 216.84910889 -225.1034375 217.76071777 -224.609375 218.69995117 C-207.50786178 250.75710852 -186.18504681 281.1791516 -161.37109375 307.7578125 C-158.91614177 310.38892133 -156.51590718 313.0607403 -154.125 315.75 C-148.472213 322.03646241 -142.58946773 327.97810115 -136.16796875 333.48046875 C-134.38571733 335.00853506 -132.62036565 336.55634156 -130.86328125 338.11328125 C-124.15858429 344.0190867 -117.24527388 349.55927985 -110.0625 354.875 C-109.29510498 355.44549072 -108.52770996 356.01598145 -107.73706055 356.60375977 C-105.45292416 358.27358433 -103.14302829 359.89564552 -100.8125 361.5 C-100.02174072 362.05768066 -99.23098145 362.61536133 -98.41625977 363.18994141 C-92.10116222 367.35653907 -86.72324632 368.54207952 -79.25 369.125 C-77.12039024 369.34350938 -74.99146645 369.56880744 -72.86328125 369.80078125 C-71.31374756 369.96827881 -71.31374756 369.96827881 -69.73291016 370.13916016 C-57.95492829 371.59442326 -46.70865221 375.35043803 -35.54296875 379.23046875 C-32.9466311 380.11403915 -30.46697754 380.86801647 -27.8125 381.5 C-28.06829834 380.91959961 -28.32409668 380.33919922 -28.58764648 379.74121094 C-29.82248666 376.91667566 -31.03905745 374.08486677 -32.25 371.25 C-32.70665039 370.18257568 -33.16330078 369.11515137 -33.63378906 368.01538086 C-36.56346067 360.99117342 -38.9281111 353.97062076 -41.02294922 346.6574707 C-44.83965434 333.45855502 -49.43148646 324.08084233 -59.07666016 314.27148438 C-60.7329629 312.58117036 -62.31656148 310.84832511 -63.88671875 309.078125 C-66.7927228 305.81682484 -69.78110306 302.6447555 -72.8125 299.5 C-73.65578857 298.62384033 -73.65578857 298.62384033 -74.51611328 297.72998047 C-81.07490615 290.95394908 -87.70678787 284.48767635 -95.1171875 278.6328125 C-97.98962029 276.35984394 -100.77256125 273.9983079 -103.5625 271.625 C-127.50598516 251.71796445 -154.5554681 235.05183637 -182.59228516 221.57324219 C-185.1045866 220.35880661 -187.60457447 219.12056136 -190.10546875 217.8828125 C-210.67880692 206.28564292 -210.67880692 206.28564292 -232.8125 200.5 Z M225.76171875 202.5546875 C224.11852661 203.22165649 224.11852661 203.22165649 222.44213867 203.90209961 C220.67640503 204.6311853 220.67640503 204.6311853 218.875 205.375 C217.66110596 205.87459229 216.44721191 206.37418457 215.1965332 206.88891602 C196.24665453 214.7228008 178.02012211 223.36176071 160.1875 233.5 C159.0133252 234.16563965 159.0133252 234.16563965 157.81542969 234.84472656 C138.98177831 245.57543333 120.95080504 257.74757985 104.1875 271.5 C103.32898438 272.18449219 102.47046875 272.86898437 101.5859375 273.57421875 C84.40487511 287.3636305 67.5880743 302.97225263 54.1875 320.5 C53.65213623 321.09635254 53.11677246 321.69270508 52.56518555 322.30712891 C47.41839571 328.29402692 45.10799233 334.41077702 42.84124756 341.9185791 C41.83366612 345.25263664 40.76599465 348.56730824 39.69921875 351.8828125 C39.4898468 352.53721313 39.28047485 353.19161377 39.0647583 353.86584473 C36.69443846 361.18242955 33.70365707 368.18196534 30.5859375 375.203125 C29.05733539 378.21000141 29.05733539 378.21000141 29.1875 380.5 C32.9678375 379.8847686 36.45507997 378.75823435 40.06030273 377.48144531 C52.65165773 373.04273676 65.33341494 369.86315334 78.67089844 368.87451172 C88.12346209 368.15419101 94.42795815 366.27454277 102.1875 360.5 C103.48676584 359.56220438 104.78626006 358.62472511 106.0859375 357.6875 C117.35454333 349.45914354 128.0835337 340.67051558 138.296875 331.16796875 C140.8265991 328.83310178 143.40216778 326.57054953 146 324.3125 C183.4381339 290.66633143 212.30212406 245.37113391 234.1875 200.5 C230.80646367 200.5 228.88529117 201.28276117 225.76171875 202.5546875 Z M-208.8125 409.5 C-187.12639391 431.18610609 -131.03349363 435.51828096 -101.75 435.75 C-72.18751859 435.51462472 -38.64526199 429.22574156 -14.8125 410.5 C-30.30793882 392.84797949 -64.40813166 386.83261177 -86.359375 385.11328125 C-129.45846438 382.37882215 -169.35692851 393.30508936 -208.8125 409.5 Z M26.9375 402.125 C26.22166748 402.4972168 25.50583496 402.86943359 24.76831055 403.25292969 C21.02006681 405.2775482 18.03616068 407.25487624 15.1875 410.5 C52.29561792 436.14707934 98.29063279 439.48035483 141.67626953 431.97851562 C165.1687724 427.63104841 187.21390576 419.7340396 209.1875 410.5 C189.09369294 397.10412863 160.72740034 391.49445813 137.1875 387.5 C135.95644531 387.28601563 134.72539062 387.07203125 133.45703125 386.8515625 C97.14120657 381.28931632 59.71906299 385.07145246 26.9375 402.125 Z M-15.8125 431.5 C-16.72386719 431.99628906 -17.63523437 432.49257813 -18.57421875 433.00390625 C-31.6879836 439.95235994 -45.56175269 445.39799359 -60.25 447.8125 C-64.58771277 448.78263113 -66.65865153 449.69230417 -69.125 453.4375 C-70.08780492 455.42729683 -70.97132749 457.45580981 -71.8125 459.5 C-72.13057617 460.23057617 -72.44865234 460.96115234 -72.77636719 461.71386719 C-77.15256143 471.76903055 -80.9138182 481.66169138 -82.8125 492.5 C-67.63720925 487.32896771 -54.21951022 479.63505413 -41.8125 469.5 C-40.96300781 468.81550781 -40.11351562 468.13101563 -39.23828125 467.42578125 C-29.11230508 458.82585486 -19.16771518 447.25749351 -14.8125 434.5 C-15.3075 433.015 -15.3075 433.015 -15.8125 431.5 Z M15.1875 432.5 C20.81055058 454.61733229 41.63512192 471.10627242 60.35668945 482.29736328 C67.34838689 486.32236481 74.72959531 489.45215722 82.1875 492.5 C83.86740356 489.14019289 81.99237535 486.09220947 80.89086914 482.65136719 C79.07361305 477.23539273 77.17261276 471.85669351 75.1875 466.5 C74.85991699 465.59846191 74.53233398 464.69692383 74.19482422 463.76806641 C70.98608608 454.90564443 70.98608608 454.90564443 64.45019531 448.52050781 C60.28421061 446.99418639 55.98225463 446.50666645 51.60546875 445.92382812 C47.20677573 445.15281327 43.06776892 443.63199258 38.875 442.125 C38.03171143 441.82634033 37.18842285 441.52768066 36.31958008 441.2199707 C30.4041755 439.07128954 24.84112192 436.56988271 19.3046875 433.56640625 C17.28489693 432.35005062 17.28489693 432.35005062 15.1875 432.5 Z " fill="#4D4213" transform="rotate(-20 350 350) translate(255.8125,-0.49999999999999994)"/>
</svg>
